HIERARCHY
ROOT Hips
{
    OFFSET 0.0 0.0 0.0
    CHANNELS 6 Xposition Yposition Zposition Zrotation Xrotation Yrotation
    JOINT LeftHipJoint
    {
        OFFSET 0.1 0.0 0.0
        CHANNELS 3 Zrotation Xrotation Yrotation
        JOINT LeftUpLeg
        {
            OFFSET 126.05981600232468 0.0 0.0
            CHANNELS 3 Zrotation Xrotation Yrotation
            JOINT LeftLeg
            {
                OFFSET 0.0 0.0 -415.0292556303588
                CHANNELS 3 Zrotation Xrotation Yrotation
                JOINT LeftFoot
                {
                    OFFSET 0.0 0.0 -402.57522869067765
                    CHANNELS 3 Zrotation Xrotation Yrotation
                    End Site
                    {
                        OFFSET 0.0 -0.1 0.0
                    }
                }
            }
        }
    }
    JOINT LowerBack
    {
        OFFSET 0.0 0.0 0.1
        CHANNELS 3 Zrotation Xrotation Yrotation
        JOINT Spine
        {
            OFFSET 0.0 0.0 218.28685332951378
            CHANNELS 3 Zrotation Xrotation Yrotation
            JOINT Spine1
            {
                OFFSET 0.0 0.0 250.7816552870497
                CHANNELS 3 Zrotation Xrotation Yrotation
                JOINT LeftShoulder
                {
                    OFFSET 0.1 0.0 0.0
                    CHANNELS 3 Zrotation Xrotation Yrotation
                    JOINT LeftArm
                    {
                        OFFSET 146.308731771113 0.0 0.0
                        CHANNELS 3 Zrotation Xrotation Yrotation
                        JOINT LeftForeArm
                        {
                            OFFSET 269.4549182385999 0.0 0.0
                            CHANNELS 3 Zrotation Xrotation Yrotation
                            JOINT LeftHand
                            {
                                OFFSET 235.08476301753763 0.0 0.0
                                CHANNELS 3 Zrotation Xrotation Yrotation
                                End Site
                                {
                                    OFFSET 0.1 0.0 0.0
                                }
                            }
                        }
                    }
                }
                JOINT Neck
                {
                    OFFSET 0.0 0.0 0.1
                    CHANNELS 3 Zrotation Xrotation Yrotation
                    JOINT Neck1
                    {
                        OFFSET 0.0 0.0 107.69135131615717
                        CHANNELS 3 Zrotation Xrotation Yrotation
                        End Site
                        {
                            OFFSET 0.0 0.0 103.38771886749286
                        }
                    }
                }
                JOINT RightShoulder
                {
                    OFFSET -0.1 0.0 0.0
                    CHANNELS 3 Zrotation Xrotation Yrotation
                    JOINT RightArm
                    {
                        OFFSET -146.308731771113 0.0 0.0
                        CHANNELS 3 Zrotation Xrotation Yrotation
                        JOINT RightForeArm
                        {
                            OFFSET -269.4549182385999 0.0 0.0
                            CHANNELS 3 Zrotation Xrotation Yrotation
                            JOINT RightHand
                            {
                                OFFSET -235.08476301753763 0.0 0.0
                                CHANNELS 3 Zrotation Xrotation Yrotation
                                End Site
                                {
                                    OFFSET -0.1 0.0 0.0
                                }
                            }
                        }
                    }
                }
            }
        }
    }
    JOINT RightHipJoint
    {
        OFFSET -0.1 0.0 0.0
        CHANNELS 3 Zrotation Xrotation Yrotation
        JOINT RightUpLeg
        {
            OFFSET -126.05981600232468 0.0 0.0
            CHANNELS 3 Zrotation Xrotation Yrotation
            JOINT RightLeg
            {
                OFFSET 0.0 0.0 -415.0292556303588
                CHANNELS 3 Zrotation Xrotation Yrotation
                JOINT RightFoot
                {
                    OFFSET 0.0 0.0 -402.57522869067765
                    CHANNELS 3 Zrotation Xrotation Yrotation
                    End Site
                    {
                        OFFSET 0.0 -0.1 0.0
                    }
                }
            }
        }
    }
}
MOTION
Frames: 7
Frame Time: 0.03333333333333333
0.0 0.0 827.0238118181601 24.780913989984242 8.297639664387075 2.268519325915329 0.0 0.0 3.975693351829396e-16 -0.06936827329368653 -19.873568456687874 2.6582841129746844 1.1461058701095888 21.784046500424015 -2.0794805346232703 -3.1805546814635168e-15 -1.9878466759146977e-16 -7.951386703658792e-16 0.0 0.0 3.975693351829396e-16 0.011636056940364053 3.377908029967531 0.8454835704541384 0.03505580557555987 -7.950170089027281e-16 3.978125650911274e-16 0.0 0.0 3.975693351829396e-16 -65.75855466233463 49.2250942283195 94.15550085493696 -85.30920281101173 4.862361957606122e-15 8.80435784205865e-15 3.180554681463516e-15 3.310429723537619e-32 1.1927080055488184e-15 0.0 0.0 3.975693351829396e-16 -4.910770117876839 -7.793834244398273 -4.988883611507877 0.0 0.0 3.975693351829396e-16 53.269767521954726 44.438677234443944 -87.59001672893837 82.9990858524252 -2.9313737224407824e-15 1.1086663752568537e-14 -3.1805546814635168e-15 0.0 0.0 0.0 0.0 3.975693351829396e-16 -0.07746155176971613 -20.959019022271914 0.20225879147393502 0.20453158445087857 26.17615273013975 -1.3160501720016033 0.0 0.0 0.0
0.0 0.0 827.0238118181601 24.79311406844471 8.464542898628181 2.1972642576607297 0.0 9.93923337957349e-17 0.0 -0.05573778447336564 -20.0676473021797 2.777250746012745 1.1711171536710447 21.68359920425054 -2.2397257334173597 0.0 0.0 -3.975693351829396e-16 0.0 9.93923337957349e-17 0.0 0.009109907638648215 3.303977951444142 0.9333000282047754 0.04827354621104842 1.987344052019493e-15 -1.1935453122307914e-15 0.0 0.0 3.975693351829396e-16 -65.63838912832978 49.331385065396546 93.93256610466314 -85.42613307927668 -1.222318204305596e-14 -2.4270487648834284e-14 -3.1805546814635176e-15 -3.862168010793889e-32 1.391492673140289e-15 0.0 0.0 3.975693351829396e-16 -5.099702556341072 -8.06552462353664 -4.918934085182158 0.0 0.0 3.975693351829396e-16 52.70614491314291 44.22956043175403 -86.93358232706808 83.18231275956316 6.601311603443563e-15 2.6461907571335153e-15 3.1805546814635168e-15 0.0 0.0 0.0 9.93923337957349e-17 0.0 -0.06295087958590742 -21.130425016408633 0.2684910534306924 0.21664301841463252 26.193331836405733 -1.3407089722923746 0.0 0.0 -7.951386703658792e-16
0.0 0.0 827.0238118181601 24.817246364812515 8.614720819237489 2.0683426674415153 0.0 0.0 -3.975693351829396e-16 -0.025013264985420378 -20.210232868528617 2.90607002101321 1.182098470845956 21.608816615537883 -2.2735632127299388 0.0 0.0 -3.975693351829396e-16 0.0 0.0 -3.975693351829396e-16 0.004158456594556273 3.25064041995289 1.069848473240584 0.02552592529443018 1.7894162073084047e-15 1.5898787774834966e-15 0.0 0.0 3.975693351829396e-16 -65.49941836481607 49.46544569150755 93.67046983360308 -85.6632544437686 -1.547638983185794e-14 7.337797499520507e-15 0.0 0.0 2.5842006786891076e-15 0.0 0.0 3.975693351829396e-16 -5.232672980297159 -8.350752769644654 -4.791238250965828 0.0 0.0 3.975693351829396e-16 52.085158029543656 43.98496239899267 -86.24619492389152 83.42296154414564 1.5071963461226877e-14 1.2129520042000143e-14 3.1805546814635168e-15 0.0 0.0 0.0 0.0 -3.975693351829396e-16 -0.03052408654703729 -21.28795206413414 0.390849997482975 0.23326188204674572 26.290790474199753 -1.344757089664697 0.0 0.0 0.0
0.0 0.0 827.0238118181601 24.994460646515677 8.716434934664504 1.962993512500205 0.0 0.0 -1.987846675914698e-16 0.0047293589823123915 -20.305125808443726 3.0233055578935515 1.1897653705004856 21.52974664850576 -2.275188452994842 5.517382872562698e-33 -1.5902773407317584e-15 3.975693351829396e-16 0.0 0.0 -1.987846675914698e-16 -0.0004087903188093639 3.2037508191804087 1.2285679295593341 -0.00010547505349479604 -1.9878455780935474e-15 -1.1927098352488279e-15 0.0 0.0 0.0 -65.43009886210618 49.639218988304705 93.42941488861678 -85.88775636157321 8.990175197846073e-15 -3.227608499636417e-16 0.0 0.0 -2.3854160110976376e-15 0.0 0.0 0.0 -5.534741318848271 -8.583076069702155 -4.8111388442102 0.0 0.0 0.0 51.48642029892747 43.752440095181264 -85.62661457282029 83.68290314382047 -6.117138235903641e-15 -1.1599629183430696e-14 3.1805546814635168e-15 0.0 0.0 0.0 0.0 -1.987846675914698e-16 0.0007763062086267559 -21.368986591832467 0.5622511720175627 0.27579194464398266 26.33521650772881 -1.4472197528783217 0.0 0.0 0.0
0.0 0.0 827.0238118181601 25.10147241367215 8.88094404935367 1.9504475356443298 0.0 0.0 -3.975693351829396e-16 0.01726270410104139 -20.513336217413258 2.9741333058651502 1.1501333796930897 21.427201896632962 -2.10981095041611 0.0 0.0 0.0 0.0 0.0 -3.975693351829396e-16 -0.0022765976663908106 3.199699390942935 1.3524629547228977 -0.03847831308724713 3.180421003691971e-15 3.986373004778251e-16 0.0 0.0 0.0 -65.3934826989333 49.772567138915335 93.21776404039812 -86.15857605990716 4.522695876329073e-16 1.3486369329516867e-14 0.0 0.0 2.385416011097637e-15 0.0 0.0 0.0 -5.914283684768456 -8.722848138593513 -4.985460259684575 0.0 0.0 0.0 50.87290644465464 43.48690943341166 -85.05929167206341 83.92846385264885 1.0871863005429838e-14 7.33303294561108e-15 0.0 0.0 0.0 0.0 0.0 -3.975693351829396e-16 0.014025207800691691 -21.57744939015318 0.5717257936650271 0.26313567371547397 26.37467418786005 -1.418403376448266 0.0 0.0 0.0
0.0 0.0 827.0238118181601 25.1727434304023 8.975817145498764 1.8980485163292473 -5.862219302097867e-33 -1.6896696745274934e-15 -3.975693351829396e-16 0.038744692414607096 -20.662864371747947 3.0452781882745064 1.154536676156834 21.431389077401686 -2.14093610055313 0.0 0.0 0.0 -5.862219302097867e-33 -1.6896696745274934e-15 -3.975693351829396e-16 -0.005460210056609441 3.209599591245172 1.430244077169811 -0.04133584442285947 7.95425443666302e-16 -7.948517936009853e-16 -1.1034765745125397e-32 1.5902773407317582e-15 7.951386703658791e-16 -65.38441150493813 49.85938826819675 93.02338368998593 -86.31622139052189 6.815775341391e-15 2.0309719113232163e-15 0.0 0.0 1.987846675914698e-16 -1.1034765745125397e-32 1.5902773407317582e-15 7.951386703658791e-16 -6.118342025832487 -8.937976195783257 -4.961505692641438 -1.1034765745125397e-32 1.5902773407317582e-15 7.951386703658791e-16 50.35551154591877 43.260320094898134 -84.41896517564753 84.18819884157799 2.3601143188944055e-15 -2.1320854775381524e-15 0.0 0.0 0.0 -5.862219302097867e-33 -1.6896696745274934e-15 -3.975693351829396e-16 0.03667203623643735 -21.70003832447658 0.620581645335944 0.2561767448494979 26.291603479126927 -1.4075127274791175 0.0 0.0 -3.975693351829396e-16
0.0 0.0 827.0238118181601 25.29172732756875 8.84089989085319 1.8685390272516906 0.0 0.0 0.0 0.039396659632371 -20.51449306329386 3.093149662918931 1.1774110492284522 21.51441823952765 -2.205785317980878 -3.1805546814635168e-15 -2.2069531490250793e-32 7.951386703658792e-16 0.0 0.0 0.0 -0.00557319497458578 3.1969151485475207 1.5253174127797227 -0.024859213344322003 -4.372917593220144e-15 -1.5912260282451962e-15 0.0 1.5902773407317582e-15 0.0 -65.5141144368118 50.056664382449405 93.0174455663935 -86.44547220164137 -1.566561874884705e-14 2.7361636026120826e-15 0.0 0.0 -2.3854160110976376e-15 0.0 1.5902773407317582e-15 0.0 -6.364148634815923 -8.938877241527841 -4.96975088266753 0.0 1.5902773407317582e-15 0.0 49.96716494067161 43.11170268581956 -84.001226218971 84.30213106469103 -8.984848585758615e-15 -4.471247535390654e-16 0.0 0.0 0.0 0.0 0.0 0.0 0.037210994772107035 -21.509158889456533 0.631431819396989 0.2619365873449222 26.432638464708294 -1.378545552815718 0.0 0.0 3.975693351829396e-16
